<svg xmlns="http://www.w3.org/2000/svg" width="92" height="92" viewBox="0 0 92 92">
  <g id="Group_595" data-name="Group 595" transform="translate(-1369 -1651)">
    <circle id="Ellipse_13" data-name="Ellipse 13" cx="46" cy="46" r="46" transform="translate(1369 1651)" fill="#34e7e4"/>
    <g id="Group_594" data-name="Group 594">
      <g id="Group_593" data-name="Group 593">
        <g id="Group_407" data-name="Group 407" transform="translate(1393 1696.141)">
          <g id="Group_406" data-name="Group 406">
            <path id="Path_327" data-name="Path 327" d="M39.3,259.925a3.937,3.937,0,0,0,.751-2.316v-5.164a.859.859,0,0,0-.859-.859H35.354a3.224,3.224,0,0,0-3.22,3.22v2.8a3.938,3.938,0,0,0,.75,2.314,5.532,5.532,0,0,0-1.68.559,7.312,7.312,0,0,0-5.4-3.218l-.027-.006a5.053,5.053,0,0,0,1.295-3.381v-7.019a.859.859,0,0,0-.859-.859h-5.22a4.072,4.072,0,0,0-4.068,4.068v3.81a5.052,5.052,0,0,0,1.295,3.381l-.027.006a7.312,7.312,0,0,0-5.4,3.218,5.539,5.539,0,0,0-1.68-.559,3.938,3.938,0,0,0,.75-2.315v-5.164a.859.859,0,0,0-.859-.859H7.166a3.224,3.224,0,0,0-3.22,3.22v2.8a3.937,3.937,0,0,0,.751,2.316A5.612,5.612,0,0,0,0,265.454V268a.859.859,0,0,0,.859.859H43.141A.859.859,0,0,0,44,268v-2.546A5.612,5.612,0,0,0,39.3,259.925ZM5.665,254.806a1.5,1.5,0,0,1,1.5-1.5h2.981v1.047a.932.932,0,0,1-.931.931H5.665Zm0,2.195H9.217a2.634,2.634,0,0,0,.931-.169v.778a2.241,2.241,0,0,1-4.483,0Zm2.8,4.569-.554.554-.554-.554Zm3.1,2.971v2.6H1.719v-1.687a3.89,3.89,0,0,1,3.255-3.833L7.3,263.946a.859.859,0,0,0,1.215,0l2.326-2.326a3.843,3.843,0,0,1,1.174.393A7.273,7.273,0,0,0,11.563,264.54ZM22,257.233a3.359,3.359,0,0,1-3.355-3.355v-1.136h5.136a3.272,3.272,0,0,0,1.574-.4v1.537A3.359,3.359,0,0,1,22,257.233Zm1.5,1.719-1.5,1.5-1.5-1.5Zm-4.853-8.884h0a2.351,2.351,0,0,1,2.349-2.349h4.361v1.731a1.575,1.575,0,0,1-1.574,1.574H18.645v-.956Zm12.073,17.073H13.282v-.719a16.213,16.213,0,0,0,0-1.882,6.861,6.861,0,0,1,.063-.837,5.6,5.6,0,0,1,4.778-4.7l3.27,3.27a.859.859,0,0,0,1.215,0l3.27-3.27a5.6,5.6,0,0,1,4.841,5.537v2.6Zm3.134-12.335a1.5,1.5,0,0,1,1.5-1.5h2.981v1.047a.932.932,0,0,1-.931.931H33.853Zm0,2.195H37.4a2.634,2.634,0,0,0,.931-.169v.778a2.241,2.241,0,0,1-4.482,0V257Zm2.8,4.569-.554.554-.554-.554Zm-4.211,5.571v-2.6a7.272,7.272,0,0,0-.451-2.527,3.833,3.833,0,0,1,1.174-.393l2.326,2.326a.859.859,0,0,0,1.215,0l2.325-2.325a3.891,3.891,0,0,1,3.255,3.833v1.687Z" transform="translate(0 -246)" fill="#fff" stroke="#fff" stroke-width="0.5"/>
          </g>
        </g>
        <g id="Group_409" data-name="Group 409" transform="translate(1410.513 1680.363)">
          <g id="Group_408" data-name="Group 408">
            <path id="Path_328" data-name="Path 328" d="M212.51,62.661a.859.859,0,0,0-1.215,0l-4.217,4.217-1.823-1.823a.859.859,0,1,0-1.215,1.215L206.47,68.7a.859.859,0,0,0,1.215,0l4.825-4.825A.859.859,0,0,0,212.51,62.661Z" transform="translate(-203.787 -62.409)" fill="#fff" stroke="#fff" stroke-width="0.5"/>
          </g>
        </g>
        <g id="Group_411" data-name="Group 411" transform="translate(1406.365 1675.671)">
          <g id="Group_410" data-name="Group 410">
            <path id="Path_329" data-name="Path 329" d="M167.671,7.877a.859.859,0,0,0-.7,1.57,6.916,6.916,0,1,1-5.657.013.859.859,0,0,0-.707-1.566,8.635,8.635,0,1,0,7.065-.016Z" transform="translate(-155.522 -7.803)" fill="#fff" stroke="#fff" stroke-width="0.5"/>
          </g>
        </g>
        <g id="Group_413" data-name="Group 413" transform="translate(1414.141 1675)">
          <g id="Group_412" data-name="Group 412">
            <path id="Path_330" data-name="Path 330" d="M246.89,0h-.031a.859.859,0,0,0,0,1.719h.027a.859.859,0,0,0,0-1.719Z" transform="translate(-246)" fill="#fff" stroke="#fff" stroke-width="0.5"/>
          </g>
        </g>
      </g>
    </g>
  </g>
</svg>
