<svg xmlns="http://www.w3.org/2000/svg" width="92" height="92" viewBox="0 0 92 92">
  <g id="Group_382" data-name="Group 382" transform="translate(-946 -1469)">
    <circle id="Ellipse_8" data-name="Ellipse 8" cx="46" cy="46" r="46" transform="translate(946 1469)" fill="#34e7e4"/>
    <path id="fire" d="M87.969,29.562l.274-.929a13.158,13.158,0,0,1,2.728-4.581c.188-.187,4.611-4.644,4.611-9.886a14.136,14.136,0,1,0-28.272,0c0,5.242,4.423,9.7,4.611,9.886a13.167,13.167,0,0,1,2.729,4.582l.273.929c-2.587.391-4.6,3.177-4.6,6.547,0,3.144,3.642,10.357,4.057,11.169a1.309,1.309,0,0,0,2.331,0c.027-.053.409-.8.929-1.909,1.258,2.978,2.566,5.544,2.638,5.685a1.309,1.309,0,0,0,2.331,0c.072-.141,1.381-2.708,2.638-5.686.521,1.107.9,1.857.93,1.909a1.309,1.309,0,0,0,2.331,0c.415-.812,4.057-8.025,4.057-11.169C92.567,32.739,90.555,29.953,87.969,29.562Zm-14.2-7.367c-.038-.038-3.839-3.865-3.839-8.03a11.518,11.518,0,1,1,23.036,0c0,4.142-3.8,7.993-3.839,8.031a15.561,15.561,0,0,0-3.393,5.7l-.989,3.358h-.591l1.249-9.7h1.653a1.309,1.309,0,0,0,0-2.618H75.839a1.309,1.309,0,0,0,0,2.618h1.653l1.249,9.7h-.591l-.988-3.358A15.577,15.577,0,0,0,73.767,22.195Zm7.613,9.057-1.249-9.7h2.63l-1.249,9.7ZM87.347,43.67c-.305-.662-.64-1.413-.965-2.19a1.309,1.309,0,0,0-2.439.063c-.742,2.062-1.733,4.289-2.5,5.919-.764-1.63-1.755-3.856-2.5-5.918a1.309,1.309,0,0,0-2.439-.063c-.325.776-.66,1.527-.965,2.19-1.277-2.778-2.6-6.125-2.6-7.561,0-2.152,1.328-3.971,2.737-3.977l.235.8a1.309,1.309,0,0,0,1.256.939h8.551a1.309,1.309,0,0,0,1.255-.939l.235-.8c1.409.006,2.737,1.825,2.737,3.977C89.95,37.544,88.624,40.891,87.347,43.67Z" transform="translate(910.807 1488.999)" fill="#fff"/>
  </g>
</svg>
