<svg xmlns="http://www.w3.org/2000/svg" width="92" height="92" viewBox="0 0 92 92">
  <g id="Group_599" data-name="Group 599" transform="translate(-1338 -1822)">
    <circle id="Ellipse_12" data-name="Ellipse 12" cx="46" cy="46" r="46" transform="translate(1338 1822)" fill="#34e7e4"/>
    <g id="Group_196" data-name="Group 196" transform="translate(369 -7)">
      <path id="Path_13" data-name="Path 13" d="M220.572,86.682a6.009,6.009,0,1,0-6.009-6.009A6.009,6.009,0,0,0,220.572,86.682Zm0-10.124a4.115,4.115,0,1,1-4.115,4.115A4.115,4.115,0,0,1,220.572,76.558Zm0,0" transform="translate(794.501 1787.959)" fill="#fff"/>
      <path id="Path_14" data-name="Path 14" d="M39.793,184.785H37.235a8.541,8.541,0,0,0-7.739,5.04,8.354,8.354,0,0,0-4.144-1.1H22.8a8.353,8.353,0,0,0-4.125,1.086,8.482,8.482,0,0,0-7.7-5.029H8.408A8.417,8.417,0,0,0,0,193.193v8.066a.947.947,0,0,0,.947.947h13.44v3a.947.947,0,0,0,.947.947H32.812a.947.947,0,0,0,.947-.947v-3H47.253a.947.947,0,0,0,.947-.947v-8.066a8.417,8.417,0,0,0-8.407-8.408Zm0,1.894c.047,0,.094,0,.141,0l-1.143,4.9a.525.525,0,0,1-.446.416h-.038a.522.522,0,0,1-.483-.42L36.687,186.7q.272-.023.549-.024Zm-14.44,3.943c.173,0,.345.009.514.022l-1.556,5.071-1.563-5.092h2.6Zm-14.388-3.943c.064,0,.128,0,.192,0l-1.58,5.743L8,186.693c.135-.008.271-.014.408-.014Zm-9.07,6.513a6.524,6.524,0,0,1,4.248-6.107l2.487,9.039v4.187H1.895Zm8.63,7.119v-4.187l2.5-9.1a6.606,6.606,0,0,1,4.065,3.943,8.386,8.386,0,0,0-2.707,6.172v3.176Zm5.758-3.176a6.524,6.524,0,0,1,4.575-6.219l2.507,8.169v5.169H16.282Zm15.583,7.119H25.258v-5.169l2.46-8.017a6.521,6.521,0,0,1,4.147,6.066Zm-.8-13.279a6.682,6.682,0,0,1,3.776-3.838l1.136,4.874A2.433,2.433,0,0,0,37.36,193.7v6.615h-3.6v-3.177a8.384,8.384,0,0,0-2.692-6.159Zm15.239,9.335H39.254v-6.617a2.454,2.454,0,0,0,1.381-1.679L41.8,187a6.524,6.524,0,0,1,4.5,6.194Zm0,0" transform="translate(991 1687.109)" fill="#fff"/>
      <path id="Path_15" data-name="Path 15" d="M391.458,10.751a6.007,6.007,0,0,0,3-11.211v-.91A2.631,2.631,0,0,0,391.831-4,2.631,2.631,0,0,0,389.2-1.369v.544a6.008,6.008,0,0,0,2.258,11.576Zm0-1.894A4.122,4.122,0,0,1,387.6,6.182a9.824,9.824,0,0,0,2.211-.649,8.587,8.587,0,0,0,2.4-1.538,7.01,7.01,0,0,0,3.145,2.08,4.063,4.063,0,0,1-3.9,2.782Zm4.068-4.733a5.489,5.489,0,0,1-2.059-1.58,8.536,8.536,0,0,0,.58-1A4.113,4.113,0,0,1,395.526,4.124Zm-4.432-5.493a.737.737,0,0,1,.737-.737.737.737,0,0,1,.737.737v.206a6.01,6.01,0,0,0-1.11-.1c-.122,0-.243,0-.364.012Zm.364,2a4.108,4.108,0,0,1,.883.1,6.724,6.724,0,0,1-4.975,3.582A4.121,4.121,0,0,1,391.458.627Zm0,0" transform="translate(638.002 1860)" fill="#fff"/>
      <path id="Path_16" data-name="Path 16" d="M49.681,40.479a6.016,6.016,0,0,0,6.009-5.991V34.47a6.009,6.009,0,1,0-6.009,6.009Zm0-10.124a4.115,4.115,0,1,1-4.115,4.115A4.12,4.12,0,0,1,49.681,30.355Zm0,0" transform="translate(951.005 1830.272)" fill="#fff"/>
      <path id="Path_17" data-name="Path 17" d="M487.736,268.5h-1.789a.947.947,0,0,0,0,1.894h1.789a.947.947,0,0,0,0-1.894Zm0,0" transform="translate(546.833 1610.442)" fill="#fff"/>
      <path id="Path_18" data-name="Path 18" d="M319.7,318.5a.947.947,0,1,0,0,1.894h1.789a.947.947,0,1,0,0-1.894Zm0,0" transform="translate(699.086 1564.652)" fill="#fff"/>
      <path id="Path_19" data-name="Path 19" d="M144.512,265.7a.947.947,0,0,0-.947-.947H142.2a.947.947,0,0,0,0,1.894h1.368A.947.947,0,0,0,144.512,265.7Zm0,0" transform="translate(861.642 1613.876)" fill="#fff"/>
    </g>
  </g>
</svg>
