<svg xmlns="http://www.w3.org/2000/svg" width="92" height="92" viewBox="0 0 92 92">
  <g id="Group_596" data-name="Group 596" transform="translate(-977 -1827)">
    <circle id="Ellipse_12" data-name="Ellipse 12" cx="46" cy="46" r="46" transform="translate(977 1827)" fill="#34e7e4"/>
    <g id="_004-handshake" data-name="004-handshake" transform="translate(992 1783.773)">
      <g id="Group_417" data-name="Group 417" transform="translate(0 66.227)">
        <g id="Group_416" data-name="Group 416" transform="translate(0 0)">
          <path id="Path_338" data-name="Path 338" d="M61.08,78.793l-11.9-11.9a.98.98,0,0,0-1.386,0l-5.951,5.951a.98.98,0,0,0,0,1.386l.594.594-1.364,1.364a3.064,3.064,0,0,1-3.419.6,8.465,8.465,0,0,0-7.548.281,6.606,6.606,0,0,0-3.836.2,3.052,3.052,0,0,1-3.237-.68l-2.45-2.45.292-.292a.98.98,0,0,0,0-1.386l-5.951-5.951a.98.98,0,0,0-1.386,0L.287,79.762a.98.98,0,0,0,0,1.386L6.238,87.1a.98.98,0,0,0,1.386,0l.355-.355,1.728,1.728a3,3,0,0,1,.836,1.574,15.391,15.391,0,0,0,4.263,8.094l.325.325a3.525,3.525,0,0,0,2.559,5.952c.059,0,.117,0,.176,0a3.525,3.525,0,0,0,3.521,3.7l.079,0a3.526,3.526,0,0,0,6.019,2.571c.056-.056.109-.114.161-.173a3.3,3.3,0,0,0,4.16-1.923l.1.1a3.3,3.3,0,0,0,5.42-1.184,3.295,3.295,0,0,0,5.232-2.666,3.325,3.325,0,0,0-.093-.779,3.3,3.3,0,0,0,2.024-5.136l.786-.786a15.386,15.386,0,0,0,4.282-8.195,2.647,2.647,0,0,1,.748-1.4l2.924-2.924.514.514a.98.98,0,0,0,1.386,0l5.951-5.951a.98.98,0,0,0,0-1.386ZM6.931,85.02,2.366,80.455,14.229,68.593l4.565,4.565ZM18.8,102a1.567,1.567,0,1,1,0-2.217A1.569,1.569,0,0,1,18.8,102Zm3.7,3.7a1.567,1.567,0,1,1,0-2.217A1.556,1.556,0,0,1,22.5,105.7Zm3.6,3.6a1.567,1.567,0,1,1,0-2.217A1.557,1.557,0,0,1,26.1,109.3Zm16.647-7.524a1.333,1.333,0,0,1-1.887,0L31.35,92.269a.98.98,0,1,0-1.386,1.386L40.206,103.9a1.335,1.335,0,0,1-1.888,1.888l-1.728-1.728-.029-.03-.009-.008L28.61,96.076a.98.98,0,0,0-1.386,1.386l7.968,7.968a1.334,1.334,0,0,1-1.9,1.874l-8.64-8.64a.98.98,0,1,0-1.386,1.386l6.4,6.4.005.005a1.335,1.335,0,0,1-.945,2.278,1.358,1.358,0,0,1-.253-.024,3.525,3.525,0,0,0-3.487-4.05l-.079,0a3.523,3.523,0,0,0-3.524-3.6q-.088,0-.176,0a3.523,3.523,0,0,0-4.317-3.609l-.7-.7a13.438,13.438,0,0,1-3.722-7.067,4.95,4.95,0,0,0-1.376-2.6L9.365,85.358l9.83-9.83,2.45,2.45a5,5,0,0,0,3.537,1.445,5.138,5.138,0,0,0,1.755-.309,4.612,4.612,0,0,1,.856-.22l-6.069,6.069a3.931,3.931,0,0,0,5.559,5.559l3.048-3.048.825.826h0l.034.034.033.033h0l.028.027L42.746,99.888a1.335,1.335,0,0,1,0,1.888Zm6.174-14.621A4.6,4.6,0,0,0,47.627,89.6a13.435,13.435,0,0,1-3.739,7.155l-.753.753-6.2-6.2c.135.01.27.017.406.017a5,5,0,0,0,1.91-.372.98.98,0,0,0-.742-1.814c-2.523,1.032-5.547-1.812-5.883-2.14l-.017-.016-.035-.035h0l-.03-.03h0l-.825-.826.936-.936a.98.98,0,1,0-1.386-1.386l-1.626,1.626,0,0,0,0-3.74,3.74a1.971,1.971,0,1,1-2.787-2.787l6.455-6.455a6.5,6.5,0,0,1,7.276-1.323,5.034,5.034,0,0,0,5.615-1l1.364-1.364,8.022,8.022Zm5.518-3.1L43.921,73.536l4.565-4.565L59,79.487Z" transform="translate(0 -66.227)" fill="#fff" stroke="#fff" stroke-width="0.8"/>
        </g>
      </g>
      <g id="Group_419" data-name="Group 419" transform="translate(54.444 79.256)">
        <g id="Group_418" data-name="Group 418" transform="translate(0 0)">
          <circle id="Ellipse_29" data-name="Ellipse 29" cx="0.98" cy="0.98" r="0.98" fill="#fff" stroke="#fff" stroke-width="0.8"/>
        </g>
      </g>
      <g id="Group_421" data-name="Group 421" transform="translate(5.441 80.224)">
        <g id="Group_420" data-name="Group 420">
          <circle id="Ellipse_30" data-name="Ellipse 30" cx="0.98" cy="0.98" r="0.98" fill="#fff" stroke="#fff" stroke-width="0.8"/>
        </g>
      </g>
    </g>
  </g>
</svg>
