<svg xmlns="http://www.w3.org/2000/svg" width="92" height="92" viewBox="0 0 92 92">
  <g id="Group_598" data-name="Group 598" transform="translate(-977 -1651)">
    <circle id="Ellipse_10" data-name="Ellipse 10" cx="46" cy="46" r="46" transform="translate(977 1651)" fill="#34e7e4"/>
    <g id="_003-pay" data-name="003-pay" transform="translate(998.183 1676.418)">
      <path id="Path_332" data-name="Path 332" d="M48.9,235.6a3.639,3.639,0,0,0-3.619-2.554l-.351.014a4.075,4.075,0,0,0-2.721,1.191l-5.422,5.365a3.8,3.8,0,0,0-3.183-1.722H25.956a15.688,15.688,0,0,1-4.183-.556,10.283,10.283,0,0,0-9.579,2.006,13.851,13.851,0,0,0-2.547,2.746,3.438,3.438,0,0,0-4.436.442L.269,247.66a.961.961,0,0,0,.017,1.351l3.975,3.921a.961.961,0,1,0,1.35-1.369l-3.3-3.254L6.6,243.862a1.519,1.519,0,0,1,2.151-.036l7.644,7.417a1.518,1.518,0,0,1,.03,2.15l-4.21,4.319-1.083-1.032A.961.961,0,1,0,9.8,258.072l1.771,1.687a.962.962,0,0,0,1.351-.025l4.873-5a3.445,3.445,0,0,0,.74-3.658l1.716-.2a20.943,20.943,0,0,1,2.408-.14H34.3c.178,0,.359-.008.536-.022l1.115-.093a6.453,6.453,0,0,0,4.383-2.252l7.841-9.225A3.739,3.739,0,0,0,48.9,235.6Zm-2.191,2.3-7.841,9.225a4.535,4.535,0,0,1-3.077,1.582l-1.116.093c-.124.01-.251.016-.376.016H22.662a22.9,22.9,0,0,0-2.63.152l-2.779.323L11.1,243.361a11.9,11.9,0,0,1,2.3-2.528,8.327,8.327,0,0,1,7.853-1.645,17.6,17.6,0,0,0,4.7.625H33.6a1.892,1.892,0,0,1,1.355.576,1.87,1.87,0,0,1,.489.94.948.948,0,0,0,.032.258,1.876,1.876,0,0,1-.41,1.284l-.03.037a1.871,1.871,0,0,1-1.466.7H26.916a.961.961,0,1,0,0,1.922h6.658a3.784,3.784,0,0,0,2.966-1.424l.03-.037a3.791,3.791,0,0,0,.834-2.367l6.16-6.1a2.162,2.162,0,0,1,1.444-.633l.351-.014a1.71,1.71,0,0,1,1.7,1.2,1.826,1.826,0,0,1-.355,1.732Zm0,0" transform="translate(0 -216.482)" fill="#fff" stroke="#fff" stroke-width="0.7"/>
      <path id="Path_333" data-name="Path 333" d="M68.337,394.566a2.6,2.6,0,1,0,2.6,2.6A2.606,2.606,0,0,0,68.337,394.566Zm0,3.283a.68.68,0,1,1,.68-.681A.682.682,0,0,1,68.337,397.849Zm0,0" transform="translate(-60.695 -365.623)" fill="#fff" stroke="#fff" stroke-width="0.7"/>
      <path id="Path_335" data-name="Path 335" d="M88.539,505.13l-.05.012a.961.961,0,0,0,.44,1.871l.049-.011a.961.961,0,0,0-.44-1.872Zm0,0" transform="translate(-81.02 -467.687)" fill="#fff" stroke="#fff" stroke-width="0.7"/>
      <path id="Path_336" data-name="Path 336" d="M244.391,18.927a10.172,10.172,0,0,0,0-20.345A10.069,10.069,0,0,0,238.115.749a10.173,10.173,0,0,0,6.276,18.178ZM237.23,4.656A8.3,8.3,0,0,1,239.3,2.261,8.167,8.167,0,0,1,244.391.5a8.246,8.246,0,1,1-7.162,4.151Zm0,0" transform="translate(-216.261)" fill="#fff" stroke="#fff" stroke-width="0.7"/>
      <path id="Path_337" data-name="Path 337" d="M325.371,58.189a2.573,2.573,0,0,1-1.232.312c-.648,0-1.216-.764-1.216-1.634a.961.961,0,1,0-1.922,0,3.506,3.506,0,0,0,2.379,3.451.96.96,0,0,0,1.918-.041,3.206,3.206,0,0,0,2.586-3.2,3.605,3.605,0,0,0-3.347-3.347c-.014,0-1.425-.125-1.425-1.028a1.422,1.422,0,0,1,1.425-1.425,1.3,1.3,0,0,1,.848.415c.123.123.136.136.136.654a.961.961,0,0,0,1.922,0,2.48,2.48,0,0,0-.7-2.01,3.381,3.381,0,0,0-1.448-.868.961.961,0,0,0-1.919.056v.063a3.187,3.187,0,0,0-2.187,3.118c0,2.2,2.289,2.947,3.341,2.95.289.023,1.432.53,1.432,1.425a1.162,1.162,0,0,1-.59,1.113Zm0,0" transform="translate(-296.389 -46.145)" fill="#fff" stroke="#fff" stroke-width="0.7"/>
    </g>
  </g>
</svg>
