<svg xmlns="http://www.w3.org/2000/svg" width="31.314" height="31.313" viewBox="0 0 31.314 31.313">
  <path id="_003-linkedin" data-name="003-linkedin" d="M26.727,0H4.587A4.592,4.592,0,0,0,0,4.587v22.14a4.592,4.592,0,0,0,4.587,4.587h22.14a4.592,4.592,0,0,0,4.587-4.587V4.587A4.592,4.592,0,0,0,26.727,0ZM11.07,24.831H7.4V11.987h3.67Zm0-14.678H7.4V6.483h3.67ZM23.914,24.831h-3.67V17.491a1.835,1.835,0,0,0-3.67,0v7.339H12.9V11.987h3.67v.692a7.955,7.955,0,0,1,2.752-.692,4.8,4.8,0,0,1,4.587,4.874Zm0,0" transform="translate(0 0)"/>
</svg>
