<svg xmlns="http://www.w3.org/2000/svg" xmlns:xlink="http://www.w3.org/1999/xlink" width="1920" height="1076.84" viewBox="0 0 1920 1076.84">
  <defs>
    <style>
      .cls-1 {
        fill: #0097e6;
        stroke: #0097e6;
        opacity: 0.02;
      }

      .cls-2 {
        opacity: 0.08;
        clip-path: url(#clip-path);
      }

      .cls-3 {
        fill: #00d2d3;
      }
    </style>
    <clipPath id="clip-path">
      <path id="Path_90" data-name="Path 90" class="cls-1" d="M1920,0H0V1076.84H1920Z" transform="translate(0 -90.753)"/>
    </clipPath>
  </defs>
  <g id="bg-3" class="cls-2" transform="translate(0 90.753)">
    <g id="Group_332" data-name="Group 332" transform="translate(-465.346 -415.618)">
      <path id="Path_88" data-name="Path 88" class="cls-3" d="M850.757,1232.2A118.313,118.313,0,0,1,720.74,1039.672c18.864-18.865,66.939-33.781,66.939-33.781C929.1,945.4,1028.207,805.024,1028.207,641.478c0-218.808-177.372-396.192-396.187-396.192-200.311,0-365.9,148.649-392.473,341.66a11.8,11.8,0,0,1-.68,2.421A119.867,119.867,0,0,1,0,574.937c0-1.935.2-3.822.292-5.738L0,569.063c.137-1.284.351-2.547.5-3.831.282-3.539.749-7.021,1.332-10.462C41.512,241.941,308.42,0,632.02,0,982.981,0,1267.5,284.513,1267.5,635.488,1267.5,909.576,1093.93,1143.028,850.757,1232.2Z" transform="matrix(-0.438, -0.899, 0.899, -0.438, 555.636, 1817.066)"/>
      <path id="Path_89" data-name="Path 89" class="cls-3" d="M416.743,9.448A118.311,118.311,0,0,1,546.76,201.972c-18.864,18.865-66.939,33.781-66.939,33.781C338.4,296.246,239.293,436.62,239.293,600.167c0,218.808,177.382,396.192,396.187,396.192,200.311,0,365.907-148.66,392.473-341.66a11.679,11.679,0,0,1,.69-2.421A119.861,119.861,0,0,1,1267.5,666.7c0,1.945-.2,3.832-.293,5.747l.293.126c-.137,1.293-.351,2.557-.5,3.841-.282,3.54-.749,7.02-1.332,10.463C1225.989,999.7,959.09,1241.644,635.481,1241.644,284.519,1241.644,0,957.122,0,606.156,0,332.068,173.57,98.617,416.743,9.448Z" transform="matrix(-0.438, -0.899, 0.899, -0.438, 1611.841, 1683.523)"/>
    </g>
  </g>
</svg>
