<svg xmlns="http://www.w3.org/2000/svg" width="24.894" height="19.559" viewBox="0 0 24.894 19.559">
  <g id="Group_211" data-name="Group 211" transform="translate(0)">
    <path id="Path_48" data-name="Path 48" d="M38.851,331.129a2.127,2.127,0,0,0,1.457-.55l-7.053-7.053-.488.351q-.792.583-1.285.91a7.917,7.917,0,0,1-1.313.667,4,4,0,0,1-1.528.34h-.028a4,4,0,0,1-1.528-.34,7.894,7.894,0,0,1-1.313-.667q-.493-.326-1.285-.91c-.147-.108-.31-.226-.487-.353l-7.054,7.055a2.128,2.128,0,0,0,1.457.55Z" transform="translate(-16.18 -311.57)"/>
    <path id="Path_49" data-name="Path 49" d="M1.4,199.764A7.365,7.365,0,0,1,0,198.555v10.73l6.216-6.216Q4.351,201.767,1.4,199.764Z" transform="translate(0 -192.248)"/>
    <path id="Path_50" data-name="Path 50" d="M418.134,199.764q-2.838,1.921-4.825,3.308l6.214,6.214V198.555A7.667,7.667,0,0,1,418.134,199.764Z" transform="translate(-394.63 -192.248)"/>
    <path id="Path_51" data-name="Path 51" d="M22.676,59.013H2.228a1.984,1.984,0,0,0-1.646.722,2.8,2.8,0,0,0-.576,1.806,3.246,3.246,0,0,0,.764,1.9,6.892,6.892,0,0,0,1.625,1.6q.472.334,2.848,1.98c.855.592,1.6,1.109,2.237,1.554.545.379,1.014.708,1.4.981l.207.148.383.276q.451.326.75.528t.722.451a4.214,4.214,0,0,0,.8.375,2.21,2.21,0,0,0,.695.125h.028a2.211,2.211,0,0,0,.695-.125,4.2,4.2,0,0,0,.8-.375q.424-.25.722-.451t.75-.528l.383-.276.208-.148,1.406-.977,5.1-3.538a6.607,6.607,0,0,0,1.695-1.709,3.675,3.675,0,0,0,.68-2.1,2.241,2.241,0,0,0-2.223-2.223Z" transform="translate(-0.006 -59.013)"/>
  </g>
</svg>
