<svg xmlns="http://www.w3.org/2000/svg" width="31.885" height="31.885" viewBox="0 0 31.885 31.885">
  <g id="Group_442" data-name="Group 442" transform="translate(0 0)">
    <path id="Path_321" data-name="Path 321" d="M213.1,210.051A3.051,3.051,0,1,1,210.051,207,3.051,3.051,0,0,1,213.1,210.051Zm0,0" transform="translate(-194.109 -193.831)"/>
    <path id="Path_322" data-name="Path 322" d="M150.126,137.595a3.032,3.032,0,0,0-1.737-1.737,5.065,5.065,0,0,0-1.7-.315c-.965-.044-1.255-.054-3.7-.054s-2.734.009-3.7.053a5.069,5.069,0,0,0-1.7.315,3.033,3.033,0,0,0-1.738,1.737,5.066,5.066,0,0,0-.315,1.7c-.044.965-.054,1.255-.054,3.7s.009,2.734.054,3.7a5.065,5.065,0,0,0,.315,1.7,3.031,3.031,0,0,0,1.737,1.737,5.058,5.058,0,0,0,1.7.315c.965.044,1.255.053,3.7.053s2.734-.009,3.7-.053a5.058,5.058,0,0,0,1.7-.315,3.032,3.032,0,0,0,1.737-1.737,5.07,5.07,0,0,0,.315-1.7c.044-.965.053-1.255.053-3.7s-.009-2.734-.053-3.7A5.059,5.059,0,0,0,150.126,137.595Zm-7.136,10.1a4.7,4.7,0,1,1,4.7-4.7A4.7,4.7,0,0,1,142.99,147.694Zm4.887-8.489a1.1,1.1,0,1,1,1.1-1.1A1.1,1.1,0,0,1,147.877,139.205Zm0,0" transform="translate(-127.047 -126.709)"/>
    <path id="Path_323" data-name="Path 323" d="M15.942,0A15.942,15.942,0,1,0,31.885,15.942,15.944,15.944,0,0,0,15.942,0Zm9.1,19.717a6.716,6.716,0,0,1-.425,2.222,4.681,4.681,0,0,1-2.677,2.677,6.721,6.721,0,0,1-2.222.425c-.976.045-1.288.055-3.774.055s-2.8-.011-3.774-.055a6.721,6.721,0,0,1-2.222-.425,4.681,4.681,0,0,1-2.677-2.677,6.715,6.715,0,0,1-.425-2.222c-.045-.976-.055-1.288-.055-3.774s.01-2.8.055-3.774a6.717,6.717,0,0,1,.425-2.222A4.684,4.684,0,0,1,9.946,7.269a6.723,6.723,0,0,1,2.222-.425c.976-.045,1.288-.055,3.774-.055s2.8.011,3.774.055a6.724,6.724,0,0,1,2.222.425,4.682,4.682,0,0,1,2.677,2.678,6.716,6.716,0,0,1,.426,2.222c.045.976.055,1.288.055,3.774S25.086,18.74,25.042,19.717Zm0,0" transform="translate(0)"/>
  </g>
</svg>
