<svg xmlns="http://www.w3.org/2000/svg" width="123" height="123" viewBox="0 0 123 123">
  <g id="Group_389" data-name="Group 389" transform="translate(-1262 -4681.349)">
    <circle id="Ellipse_26" data-name="Ellipse 26" cx="61.5" cy="61.5" r="61.5" transform="translate(1262 4681.349)" fill="#34e7e4"/>
    <path id="Path_83" data-name="Path 83" d="M54.586,39.517h0l-4.26,1.42a4.5,4.5,0,0,0-2.806-2.829A4.959,4.959,0,0,0,42.333,33.9a8.43,8.43,0,0,0-7.762-3.95,3.974,3.974,0,0,0-2.628-2.8,19.217,19.217,0,0,1,4.818-7.978c.12.137.231.281.358.411a10.689,10.689,0,0,0,7.573,3.207c.2,0,.4-.006.6-.018a8.7,8.7,0,0,0,6.517-3.408c4.315-5.675,7.49-17.079,7.622-17.562A.991.991,0,0,0,58.607.559c-.584-.077-14.391-1.81-21.293,4.018a8.965,8.965,0,0,0-1.319,1.379,22.423,22.423,0,0,0-8.355-.677A.991.991,0,0,0,26.8,6.555c.066.215,1.641,5.289,3.808,7.83a4.931,4.931,0,0,0,3.8,1.668c.142,0,.286-.011.43-.022a11.2,11.2,0,0,0,.726,1.488,21.132,21.132,0,0,0-5.649,9.524,4,4,0,0,0-2.354,1.491,6.914,6.914,0,0,0-7.92,1.685,5.766,5.766,0,0,0-1.809-.293,5.951,5.951,0,0,0-5.857,4.955H10.148A4.458,4.458,0,0,0,6.443,32.9H4.46A4.465,4.465,0,0,0,0,37.36V55.2a4.465,4.465,0,0,0,4.46,4.459H6.443a4.417,4.417,0,0,0,2.769-.991H34.988a7.929,7.929,0,0,0,4.123-1.156L57.689,46.2a3.71,3.71,0,0,0-3.1-6.687ZM36.032,11.487a7.419,7.419,0,0,1,2.561-5.4c3.795-3.2,10.242-3.835,14.736-3.835,1.608,0,2.966.081,3.862.153-.916,3.03-3.635,11.387-6.957,15.758A6.747,6.747,0,0,1,45.174,20.8,8.633,8.633,0,0,1,38.539,18.2c-.126-.13-.239-.272-.357-.41a33.787,33.787,0,0,1,6.856-4.814.991.991,0,1,0-.872-1.78,34.667,34.667,0,0,0-7.116,4.909A9.2,9.2,0,0,1,36.032,11.487Zm-1.98-.1a10.923,10.923,0,0,0,.217,2.678,2.913,2.913,0,0,1-2.144-.965A21.713,21.713,0,0,1,29.1,7.162a19.459,19.459,0,0,1,5.838.546A9.925,9.925,0,0,0,34.052,11.39ZM8.92,55.2a2.481,2.481,0,0,1-2.478,2.477H4.46A2.481,2.481,0,0,1,1.982,55.2V37.36A2.481,2.481,0,0,1,4.46,34.883H6.443A2.481,2.481,0,0,1,8.92,37.36Zm8.92-23.288a3.915,3.915,0,0,1,1.691.4.993.993,0,0,0,1.23-.315A4.935,4.935,0,0,1,27.424,30.7a.991.991,0,0,0,1.457-.484,1.959,1.959,0,0,1,1.766-1.267c.026,0,.053.008.08.008s.047-.011.072-.013a1.972,1.972,0,0,1,1.911,1.921c0,.028-.014.121-.016.149a.991.991,0,0,0,1.189,1.027,6.511,6.511,0,0,1,1.3-.132,6.419,6.419,0,0,1,5.732,3.512.99.99,0,0,0,1.088.517A2.987,2.987,0,0,1,45.593,38.8c0,.033,0,.066,0,.093a.991.991,0,0,0,.851.981,2.484,2.484,0,0,1,2,1.688l-12.2,4.066a2.972,2.972,0,0,1-.94.152h-.569a4.56,4.56,0,0,0-.37-3.9l-.088-.146a5.975,5.975,0,0,0-5.1-2.887H23.988a8.087,8.087,0,0,1-5.032-1.765,10.07,10.07,0,0,0-4.968-2.1A3.965,3.965,0,0,1,17.841,31.91ZM57.456,43.364a1.7,1.7,0,0,1-.8,1.146L38.08,55.818a5.947,5.947,0,0,1-3.092.867H10.629A4.4,4.4,0,0,0,10.9,55.2V37.361a4.35,4.35,0,0,0-.05-.5h1.833a8.087,8.087,0,0,1,5.032,1.765,10.074,10.074,0,0,0,6.27,2.2h5.184a3.984,3.984,0,0,1,3.4,1.926l.088.146a2.589,2.589,0,0,1-.147,2.883H26.489a9.877,9.877,0,0,0-5.5,1.664l-.726.484a.991.991,0,1,0,1.1,1.649l.726-.484a7.9,7.9,0,0,1,4.4-1.332H35.3a4.96,4.96,0,0,0,1.567-.254L49.512,43.3c.016,0,.03.009.046.009a.971.971,0,0,0,.607-.227L55.213,41.4A1.724,1.724,0,0,1,57.142,42,1.705,1.705,0,0,1,57.456,43.364Z" transform="translate(1293.82 4712.91)" fill="#fff" stroke="#fff" stroke-width="0.5"/>
  </g>
</svg>
