<svg xmlns="http://www.w3.org/2000/svg" width="123" height="123" viewBox="0 0 123 123">
  <g id="Group_390" data-name="Group 390" transform="translate(-528.651 -4681)">
    <circle id="Ellipse_23" data-name="Ellipse 23" cx="61.5" cy="61.5" r="61.5" transform="translate(528.651 4681)" fill="#34e7e4"/>
    <path id="Path_29" data-name="Path 29" d="M113.414,141.5A28.082,28.082,0,1,1,141.5,113.414,28.114,28.114,0,0,1,113.414,141.5Zm0-53.356a25.274,25.274,0,1,0,25.274,25.274A25.3,25.3,0,0,0,113.414,88.14Zm0,0" transform="translate(477.462 4629.085)" fill="#fff"/>
    <path id="Path_30" data-name="Path 30" d="M248.869,454.967a1.4,1.4,0,0,1-1.4-1.4v-8.424a1.4,1.4,0,0,1,2.809,0v8.424A1.4,1.4,0,0,1,248.869,454.967Zm0,0" transform="translate(341.998 4330.528)" fill="#fff"/>
    <path id="Path_31" data-name="Path 31" d="M248.869,11.233a1.4,1.4,0,0,1-1.4-1.4V1.4a1.4,1.4,0,1,1,2.809,0V9.829A1.4,1.4,0,0,1,248.869,11.233Zm0,0" transform="translate(342.469 4702.127)" fill="#fff"/>
    <path id="Path_32" data-name="Path 32" d="M9.829,250.273H1.4a1.4,1.4,0,1,1,0-2.809H9.829a1.4,1.4,0,0,1,0,2.809Zm0,0" transform="translate(549.441 4495.155)" fill="#fff"/>
    <path id="Path_33" data-name="Path 33" d="M453.563,250.273h-8.424a1.4,1.4,0,0,1,0-2.809h8.424a1.4,1.4,0,1,1,0,2.809Zm0,0" transform="translate(178.151 4495.155)" fill="#fff"/>
    <path id="Path_34" data-name="Path 34" d="M184.812,170.126a1.4,1.4,0,0,1-1.367-1.72l3.815-16.533H180.6a1.4,1.4,0,0,1-1.062-2.322l18.253-21.061a1.4,1.4,0,0,1,2.429,1.235l-3.815,16.532h6.659a1.4,1.4,0,0,1,1.062,2.322l-18.253,21.061a1.4,1.4,0,0,1-1.062.486Zm-1.137-21.061h5.35a1.4,1.4,0,0,1,1.368,1.72l-2.942,12.749,12.54-14.469h-5.35a1.4,1.4,0,0,1-1.369-1.72l2.943-12.749Zm0,0" transform="translate(399.503 4594.955)" fill="#fff"/>
    <path id="Path_35" data-name="Path 35" d="M393.612,395.017a1.4,1.4,0,0,1-.992-.411l-5.956-5.956a1.4,1.4,0,0,1,1.985-1.985l5.956,5.956a1.4,1.4,0,0,1-.993,2.4Zm0,0" transform="translate(226.361 4379.046)" fill="#fff"/>
    <path id="Path_36" data-name="Path 36" d="M79.841,81.243a1.4,1.4,0,0,1-.993-.411l-5.958-5.956a1.4,1.4,0,0,1,1.985-1.985l5.958,5.956a1.4,1.4,0,0,1-.992,2.4Zm0,0" transform="translate(488.818 4641.505)" fill="#fff"/>
    <path id="Path_37" data-name="Path 37" d="M73.883,395.017a1.4,1.4,0,0,1-.993-2.4l5.958-5.956a1.4,1.4,0,0,1,1.985,1.985l-5.958,5.956A1.4,1.4,0,0,1,73.883,395.017Zm0,0" transform="translate(488.819 4379.046)" fill="#fff"/>
    <path id="Path_38" data-name="Path 38" d="M387.656,81.243a1.4,1.4,0,0,1-.992-2.4l5.956-5.956a1.4,1.4,0,1,1,1.985,1.985l-5.956,5.956A1.4,1.4,0,0,1,387.656,81.243Zm0,0" transform="translate(226.361 4641.505)" fill="#fff"/>
  </g>
</svg>
