<svg xmlns="http://www.w3.org/2000/svg" width="123" height="123" viewBox="0 0 123 123">
  <defs>
    <style>
      .cls-1 {
        fill: #34e7e4;
      }

      .cls-2 {
        fill: #fff;
      }
    </style>
  </defs>
  <g id="tech-idea" transform="translate(-535 -3643)">
    <circle id="Ellipse_27" data-name="Ellipse 27" class="cls-1" cx="61.5" cy="61.5" r="61.5" transform="translate(535 3643)"/>
    <g id="Group_134" data-name="Group 134" transform="translate(595.164 3668.436)">
      <rect id="Rectangle_35" data-name="Rectangle 35" class="cls-2" width="2.395" height="7.185"/>
    </g>
    <g id="Group_136" data-name="Group 136" transform="translate(618.266 3674.777)">
      <rect id="Rectangle_36" data-name="Rectangle 36" class="cls-2" width="8.466" height="2.395" transform="translate(0 5.987) rotate(-45)"/>
    </g>
    <g id="Group_138" data-name="Group 138" transform="translate(566.774 3674.773)">
      <rect id="Rectangle_37" data-name="Rectangle 37" class="cls-2" width="2.395" height="8.466" transform="translate(0 1.694) rotate(-45)"/>
    </g>
    <g id="Group_140" data-name="Group 140" transform="translate(566.772 3726.264)">
      <rect id="Rectangle_38" data-name="Rectangle 38" class="cls-2" width="8.466" height="2.395" transform="translate(0 5.987) rotate(-45)"/>
    </g>
    <g id="Group_142" data-name="Group 142" transform="translate(560.436 3678.016)">
      <path id="Path_23" data-name="Path 23" class="cls-2" d="M67.42,87.067A9.57,9.57,0,0,0,56.848,73.759a9.558,9.558,0,0,0-12.853-5.327,9.561,9.561,0,0,0-16.138,0A9.558,9.558,0,0,0,15,73.759,9.568,9.568,0,0,0,4.432,87.067,9.574,9.574,0,0,0,9.58,104.716H27.964a4.127,4.127,0,0,0,.847,4.79,4.171,4.171,0,0,0,0,5.988,4.169,4.169,0,0,0,2.481,7.141,4.771,4.771,0,0,0,9.269,0,4.169,4.169,0,0,0,2.481-7.141,4.171,4.171,0,0,0,0-5.988,4.127,4.127,0,0,0,.847-4.79h6.468a11.991,11.991,0,0,0,11.915,10.778,1.2,1.2,0,0,0,1.2-1.2v-9.654A9.574,9.574,0,0,0,67.42,87.067Zm-31.494,36.81a2.387,2.387,0,0,1-2.062-1.2h4.124A2.387,2.387,0,0,1,35.926,123.877Zm4.191-3.593H31.735a1.8,1.8,0,1,1,0-3.593h8.383a1.8,1.8,0,1,1,0,3.593Zm0-5.988H31.735a1.8,1.8,0,0,1,0-3.593h8.383a1.8,1.8,0,0,1,0,3.593Zm0-5.988H31.735a1.8,1.8,0,1,1,0-3.593h8.383a1.8,1.8,0,1,1,0,3.593ZM30.9,89.481a1.194,1.194,0,0,0,1.677,0,7.062,7.062,0,0,0,2.081-6.1c-.011-.077-.022-.152-.034-.228a7.26,7.26,0,0,0-.217-.935c-.007-.024-.018-.047-.025-.071a7.134,7.134,0,0,0-.333-.832c-.032-.068-.063-.135-.1-.2a7.357,7.357,0,0,0-.481-.816c-.007-.011-.012-.023-.02-.034a4.865,4.865,0,0,1,4.961,0c-.007.011-.012.023-.02.034a7,7,0,0,0-.481.816c-.035.067-.066.134-.1.2a7.132,7.132,0,0,0-.333.832c-.007.024-.018.047-.025.071a7.215,7.215,0,0,0-.217.935c-.013.075-.024.151-.034.228a6.641,6.641,0,0,0-.078.978,7.125,7.125,0,0,0,2.156,5.123,1.194,1.194,0,0,0,1.677,0,7.062,7.062,0,0,0,2.081-6.1c-.011-.077-.022-.152-.034-.228a7.261,7.261,0,0,0-.217-.935c-.007-.024-.018-.047-.025-.071a7.135,7.135,0,0,0-.333-.832c-.032-.068-.063-.135-.1-.2a7.356,7.356,0,0,0-.481-.816c-.007-.011-.012-.023-.02-.034a4.88,4.88,0,0,1,5.833.68A4.766,4.766,0,0,1,49.1,84.358V87.31L38.854,94.139a1.2,1.2,0,0,0-.533,1v7.185h-4.79V95.136a1.2,1.2,0,0,0-.533-1L22.753,87.311V84.358a4.8,4.8,0,0,1,4.79-4.79,4.734,4.734,0,0,1,2.48.7c-.007.011-.012.023-.019.034a7,7,0,0,0-.481.816c-.035.067-.066.134-.1.2a7.134,7.134,0,0,0-.333.832c-.007.024-.018.047-.025.071a7.214,7.214,0,0,0-.217.935c-.013.075-.024.151-.034.228a6.778,6.778,0,0,0-.077.977A7.125,7.125,0,0,0,30.9,89.481Zm.24-5.123a4.842,4.842,0,0,1,.084-.847c.011-.062.023-.126.036-.187a4.772,4.772,0,0,1,.242-.786c.014-.036.035-.069.05-.1.053-.119.125-.229.187-.344.062.115.134.225.187.344.016.034.035.067.05.1a4.843,4.843,0,0,1,.242.786c.013.062.025.125.036.188a4.317,4.317,0,0,1,0,1.693c-.011.063-.023.126-.036.188a4.773,4.773,0,0,1-.242.786c-.014.035-.034.068-.049.1-.053.12-.125.23-.187.344-.062-.115-.134-.225-.187-.344-.016-.035-.035-.069-.05-.1a4.844,4.844,0,0,1-.242-.786q-.02-.093-.036-.187A4.731,4.731,0,0,1,31.136,84.358Zm8.383,0a4.843,4.843,0,0,1,.084-.847c.011-.062.023-.126.036-.187a4.772,4.772,0,0,1,.242-.786c.014-.036.035-.069.05-.1.053-.119.125-.229.187-.344.062.115.134.225.187.344.016.034.035.067.05.1a4.842,4.842,0,0,1,.242.786c.013.062.025.125.036.188a4.317,4.317,0,0,1,0,1.693c-.011.063-.023.126-.036.188a4.773,4.773,0,0,1-.242.786c-.014.035-.034.068-.049.1-.053.12-.125.23-.187.344-.062-.115-.134-.225-.187-.344-.016-.035-.035-.069-.05-.1a4.842,4.842,0,0,1-.242-.786q-.02-.093-.036-.187A4.73,4.73,0,0,1,39.519,84.358Zm22.753,17.963a1.2,1.2,0,0,0-1.2,1.2v9.506a9.6,9.6,0,0,1-8.383-9.506,1.2,1.2,0,0,0-1.2-1.2H40.716V95.776l10.245-6.83a1.2,1.2,0,0,0,.533-1V84.358a7.125,7.125,0,0,0-2.156-5.123l-.838.854.838-.855a7.147,7.147,0,0,0-9.221-.7,7.122,7.122,0,0,0-8.383,0,7.116,7.116,0,0,0-4.191-1.364,7.192,7.192,0,0,0-7.185,7.185v3.594a1.2,1.2,0,0,0,.533,1l10.245,6.828v6.545H9.58a7.18,7.18,0,0,1-3.033-13.69,1.2,1.2,0,0,0,.513-1.714,7.173,7.173,0,0,1,8.373-10.573,1.2,1.2,0,0,0,1.541-.856,7.163,7.163,0,0,1,10.735-4.43,1.2,1.2,0,0,0,1.714-.514,7.172,7.172,0,0,1,13.009,0,1.2,1.2,0,0,0,1.714.514,7.16,7.16,0,0,1,10.733,4.428,1.2,1.2,0,0,0,.583.766,1.186,1.186,0,0,0,.958.09,7.171,7.171,0,0,1,8.373,10.573,1.2,1.2,0,0,0,.513,1.714,7.18,7.18,0,0,1-3.033,13.69Z" transform="translate(0 -64)"/>
    </g>
    <g id="Group_144" data-name="Group 144" transform="translate(581.991 3721.127)">
      <rect id="Rectangle_39" data-name="Rectangle 39" class="cls-2" width="2.395" height="2.395"/>
    </g>
    <g id="Group_146" data-name="Group 146" transform="translate(577.201 3721.127)">
      <rect id="Rectangle_40" data-name="Rectangle 40" class="cls-2" width="2.395" height="2.395"/>
    </g>
    <g id="Group_148" data-name="Group 148" transform="translate(572.411 3721.127)">
      <rect id="Rectangle_41" data-name="Rectangle 41" class="cls-2" width="2.395" height="2.395"/>
    </g>
  </g>
</svg>
