<?xml version="1.0" encoding="iso-8859-1"?>
<!-- Generator: Adobe Illustrator 19.0.0, SVG Export Plug-In . SVG Version: 6.00 Build 0)  -->
<svg version="1.1" id="Layer_1" xmlns="http://www.w3.org/2000/svg" xmlns:xlink="http://www.w3.org/1999/xlink" x="0px" y="0px"
	 viewBox="0 0 512 512" style="enable-background:new 0 0 512 512;" xml:space="preserve">
<g>
	<g>
		<path d="M375.467,494.933H332.8V324.267h17.067c5.12,0,8.533-3.413,8.533-8.533V145.067c0-5.12-3.413-8.533-8.533-8.533h-5.973
			l-20.48-38.4c-1.707-2.56-4.267-4.267-7.68-4.267H307.2V76.8c0-5.12-3.413-8.533-8.533-8.533H294.4L264.533,30.72V8.533
			C264.533,3.413,261.12,0,256,0s-8.533,3.413-8.533,8.533V30.72L217.6,68.267h-4.267c-5.12,0-8.533,3.413-8.533,8.533v17.067
			h-8.533c-3.413,0-5.973,1.707-7.68,4.267l-20.48,38.4h-5.973c-5.12,0-8.533,3.413-8.533,8.533v170.667
			c0,5.12,3.413,8.533,8.533,8.533H179.2v170.667h-42.667c-5.12,0-8.533,3.413-8.533,8.533s3.413,8.533,8.533,8.533h25.6h187.733
			h25.6c5.12,0,8.533-3.413,8.533-8.533S380.587,494.933,375.467,494.933z M230.4,469.333c0,5.12-3.413,8.533-8.533,8.533
			c-5.12,0-8.533-3.413-8.533-8.533V349.867c0-5.12,3.413-8.533,8.533-8.533c5.12,0,8.533,3.413,8.533,8.533V469.333z
			 M264.533,469.333c0,5.12-3.413,8.533-8.533,8.533s-8.533-3.413-8.533-8.533V349.867c0-5.12,3.413-8.533,8.533-8.533
			s8.533,3.413,8.533,8.533V469.333z M298.667,469.333c0,5.12-3.413,8.533-8.533,8.533s-8.533-3.413-8.533-8.533V349.867
			c0-5.12,3.413-8.533,8.533-8.533s8.533,3.413,8.533,8.533V469.333z M256,290.133c-33.28,0-59.733-26.453-59.733-59.733
			c0-33.28,26.453-59.733,59.733-59.733c33.28,0,59.733,26.453,59.733,59.733C315.733,263.68,289.28,290.133,256,290.133z"/>
	</g>
</g>
<g>
	<g>
		<path d="M273.067,221.867h-8.533V204.8c0-5.12-3.413-8.533-8.533-8.533s-8.533,3.413-8.533,8.533v25.6
			c0,5.12,3.413,8.533,8.533,8.533h17.067c5.12,0,8.533-3.413,8.533-8.533S278.187,221.867,273.067,221.867z"/>
	</g>
</g>
<g>
</g>
<g>
</g>
<g>
</g>
<g>
</g>
<g>
</g>
<g>
</g>
<g>
</g>
<g>
</g>
<g>
</g>
<g>
</g>
<g>
</g>
<g>
</g>
<g>
</g>
<g>
</g>
<g>
</g>
</svg>
