<svg xmlns="http://www.w3.org/2000/svg" width="34" height="34" viewBox="0 0 34 34">
  <g id="apple" transform="translate(-459 -2377)">
    <g id="Rectangle_86" data-name="Rectangle 86" transform="translate(459 2377)" fill="none" stroke="#34e7e4" stroke-width="1">
      <rect width="34" height="34" rx="4" stroke="none"/>
      <rect x="0.5" y="0.5" width="33" height="33" rx="3.5" fill="none"/>
    </g>
    <path id="Apple_Logo" data-name="Apple Logo" d="M209.2,331.455c-1.7-.015-3-1.68-3.972-3.161-2.721-4.142-3.005-9-1.327-11.584a6.02,6.02,0,0,1,4.843-2.91c1.8,0,2.933.987,4.422.987,1.445,0,2.324-.989,4.406-.989A5.877,5.877,0,0,1,222,316.136a5.067,5.067,0,0,0,.673,9.178,16.508,16.508,0,0,1-1.5,2.8c-.973,1.481-2.344,3.324-4.042,3.341a3.8,3.8,0,0,1-1.773-.486,4.691,4.691,0,0,0-2.173-.486c-2.034.011-2.471.975-3.954.975Zm3.238-17.507a4.689,4.689,0,0,1,1.152-3.651,5.46,5.46,0,0,1,3.525-1.9,5.047,5.047,0,0,1-1.122,3.743,4.644,4.644,0,0,1-3.454,1.806Z" transform="translate(263.139 2073.6)" fill="none" stroke="#34e7e4" stroke-width="1"/>
  </g>
</svg>
